<svg xmlns="http://www.w3.org/2000/svg" viewBox="0 0 200 200" width="200" height="200">
  <defs>
    <linearGradient id="box-grad" x1="0%" y1="0%" x2="100%" y2="0%">
      <stop offset="0%" stop-color="#1A237E" />
      <stop offset="50%" stop-color="#283593" />
      <stop offset="100%" stop-color="#0D47A1" />
    </linearGradient>
  </defs>
  <!-- Skyward Comet Trail -->
  <line x1="100" y1="100" x2="100" y2="15" stroke="#FF5722" stroke-width="8" stroke-linecap="round"/>
  <line x1="90" y1="95" x2="60" y2="25" stroke="#FF9800" stroke-width="5" stroke-linecap="round"/>
  <line x1="110" y1="95" x2="140" y2="25" stroke="#FFD54F" stroke-width="5" stroke-linecap="round"/>
  <!-- Comet Bursts in Sky -->
  <circle cx="100" cy="15" r="14" fill="#FFEB3B"/>
  <polygon points="100,5 103,12 110,15 103,18 100,25 97,18 90,15 97,12" fill="#FFF"/>
  <circle cx="60" cy="25" r="8" fill="#FF7043"/>
  <circle cx="140" cy="25" r="8" fill="#42A5F5"/>
  <!-- Multi-shot Cake Box Base -->
  <rect x="65" y="95" width="70" height="85" rx="8" fill="url(#box-grad)" stroke="#3949AB" stroke-width="2"/>
  <!-- Internal Shot Tubes visible at top -->
  <rect x="72" y="98" width="16" height="12" rx="3" fill="#FFD700"/>
  <rect x="92" y="98" width="16" height="12" rx="3" fill="#FFD700"/>
  <rect x="112" y="98" width="16" height="12" rx="3" fill="#FFD700"/>
  <!-- Label on box -->
  <rect x="72" y="125" width="56" height="35" rx="4" fill="#D32F2F"/>
  <text x="100" y="145" text-anchor="middle" fill="#FFFFFF" font-family="sans-serif" font-size="11" font-weight="900">SHOTS</text>
</svg>