<svg xmlns="http://www.w3.org/2000/svg" viewBox="0 0 200 200" width="200" height="200">
  <defs>
    <linearGradient id="twinkle-body" x1="0%" y1="0%" x2="100%" y2="0%">
      <stop offset="0%" stop-color="#3F51B5" />
      <stop offset="50%" stop-color="#7986CB" />
      <stop offset="100%" stop-color="#303F9F" />
    </linearGradient>
  </defs>
  <!-- Central Sparkler Wand -->
  <line x1="100" y1="40" x2="100" y2="185" stroke="#B0BEC5" stroke-width="5" stroke-linecap="round"/>
  <rect x="94" y="45" width="12" height="95" rx="3" fill="url(#twinkle-body)"/>
  <!-- Silver / Golden Twinkling Spark Array -->
  <polygon points="100,10 108,35 130,38 112,50 118,75 100,58 82,75 88,50 70,38 92,35" fill="#FFF9C4" stroke="#FFF" stroke-width="1.5"/>
  <circle cx="100" cy="42" r="10" fill="#FFFFFF"/>
  <circle cx="65" cy="30" r="5" fill="#FFF59D"/>
  <circle cx="135" cy="30" r="5" fill="#FFF59D"/>
  <circle cx="45" cy="60" r="4" fill="#FFE082"/>
  <circle cx="155" cy="60" r="4" fill="#FFE082"/>
  <line x1="100" y1="15" x2="100" y2="0" stroke="#FFF" stroke-width="2"/>
  <line x1="125" y1="20" x2="140" y2="10" stroke="#FFF59D" stroke-width="2"/>
  <line x1="75" y1="20" x2="60" y2="10" stroke="#FFF59D" stroke-width="2"/>
</svg>